<?xml version="1.0" encoding="utf-8"?>
<!-- Generator: Adobe Illustrator 17.0.0, SVG Export Plug-In . SVG Version: 6.00 Build 0)  -->
<!DOCTYPE svg PUBLIC "-//W3C//DTD SVG 1.1//EN" "http://www.w3.org/Graphics/SVG/1.1/DTD/svg11.dtd">
<svg version="1.1" id="图层_1" xmlns="http://www.w3.org/2000/svg" xmlns:xlink="http://www.w3.org/1999/xlink" x="0px" y="0px"
	 width="1500px" height="1500px" viewBox="0 0 1500 1500" enable-background="new 0 0 1500 1500" xml:space="preserve">
<g>
	<g opacity="0.3">
		<path  fill-rule="evenodd" clip-rule="evenodd" d="M803.153,283.026c246.385,0,448.763,199.074,448.763,445.459
			c0,245.747-166.374,434.881-448.102,450.746c-33.395,1.88-76.493,0.688-116.322-6.609
			c-82.074-15.037-167.457-46.457-223.39-77.988c-11.525-6.497-27.359-18.395-26.437-21.149
			c4.361-13.026,21.928-24.628,29.08-39.655c1.789-3.758-3.655-17.07-11.058-24.853c-67.754-71.235-98.655-173.865-98.655-279.83
			C357.034,482.761,556.768,283.026,803.153,283.026z"/>
		<path fill-rule="evenodd" clip-rule="evenodd" d="M805.153,281.026c246.385,0,448.763,199.074,448.763,445.459
			c0,245.747-166.374,434.881-448.102,450.746c-33.395,1.88-76.493,0.688-116.322-6.609
			c-82.074-15.037-167.457-46.457-223.39-77.988c-11.525-6.497-27.359-18.395-26.437-21.149
			c4.361-13.026,21.928-24.628,29.08-39.655c1.789-3.758-3.655-17.07-11.058-24.853c-67.754-71.235-98.655-173.865-98.655-279.83
			C359.034,480.761,558.768,281.026,805.153,281.026z"/>
		<path fill-rule="evenodd" clip-rule="evenodd" d="M917.509,508.382c60.227,0,109.051,48.824,109.051,109.051
			s-48.824,109.052-109.051,109.052c-60.228,0-109.052-48.824-109.052-109.052S857.282,508.382,917.509,508.382z"/>
		<path fill-rule="evenodd" clip-rule="evenodd" d="M1366.255,331.934c35.406,0,64.109,28.703,64.109,64.109
			c0,35.407-28.703,64.109-64.109,64.109c-35.406,0-64.109-28.703-64.109-64.109
			C1302.146,360.636,1330.849,331.934,1366.255,331.934z"/>
		<path fill-rule="evenodd" clip-rule="evenodd" d="M1368.255,329.934c35.406,0,64.109,28.703,64.109,64.109
			c0,35.407-28.703,64.109-64.109,64.109c-35.406,0-64.109-28.703-64.109-64.109
			C1304.146,358.636,1332.849,329.934,1368.255,329.934z"/>
		<path fill-rule="evenodd" clip-rule="evenodd" d="M1388.744,353.727c10.95,0,19.828,8.877,19.828,19.828
			c0,10.95-8.877,19.828-19.828,19.828c-10.951,0-19.828-8.877-19.828-19.828C1368.916,362.604,1377.793,353.727,1388.744,353.727z"
			/>
		<path fill-rule="evenodd" clip-rule="evenodd" d="M1264.474,264.52c16.426,0,29.741,13.316,29.741,29.741
			c0,16.426-13.316,29.741-29.741,29.741c-16.426,0-29.741-13.316-29.741-29.741C1234.733,277.836,1248.048,264.52,1264.474,264.52z
			"/>
		<path fill-rule="evenodd" clip-rule="evenodd" d="M1266.474,262.52c16.426,0,29.741,13.316,29.741,29.741
			c0,16.426-13.316,29.741-29.741,29.741c-16.426,0-29.741-13.316-29.741-29.741C1236.733,275.836,1250.048,262.52,1266.474,262.52z
			"/>
		<path fill-rule="evenodd" clip-rule="evenodd" d="M1264.474,468.083c16.426,0,29.741,13.316,29.741,29.741
			c0,16.426-13.316,29.741-29.741,29.741c-16.426,0-29.741-13.316-29.741-29.741
			C1234.733,481.399,1248.048,468.083,1264.474,468.083z"/>
		<path fill-rule="evenodd" clip-rule="evenodd" d="M1266.474,466.083c16.426,0,29.741,13.316,29.741,29.741
			c0,16.426-13.316,29.741-29.741,29.741c-16.426,0-29.741-13.316-29.741-29.741
			C1236.733,479.399,1250.048,466.083,1266.474,466.083z"/>
		<path fill-rule="evenodd" clip-rule="evenodd" d="M947.251,550.68c36.501,0,66.092,29.59,66.092,66.092
			c0,36.501-29.59,66.092-66.092,66.092c-36.502,0-66.092-29.59-66.092-66.092C881.159,580.271,910.749,550.68,947.251,550.68z"/>
		<path fill-rule="evenodd" clip-rule="evenodd" stroke="#000000" stroke-miterlimit="10" d="M968.4,570.508
			c14.601,0,26.437,11.836,26.437,26.437c0,14.601-11.836,26.437-26.437,26.437c-14.601,0-26.437-11.836-26.437-26.437
			C941.963,582.344,953.799,570.508,968.4,570.508z"/>
		<path fill-rule="evenodd" clip-rule="evenodd" stroke="#000000" stroke-miterlimit="10" d="M928.745,603.554
			c7.3,0,13.218,5.918,13.218,13.218c0,7.3-5.918,13.218-13.218,13.218c-7.3,0-13.218-5.918-13.218-13.218
			C915.527,609.472,921.445,603.554,928.745,603.554z"/>
		<path fill-rule="evenodd" clip-rule="evenodd" d="M674.161,1015.474c37.044-4.396,102.673-11.307,131.611-81.353
			c0,0-12.512,60.535-49.657,76.718C718.97,1027.021,674.161,1015.474,674.161,1015.474z"/>
		<path fill-rule="evenodd" clip-rule="evenodd" d="M714.269,841.51c0,0-100.505,80.292-81.954,170.517
			c14.476,4.263,134.128,19.953,173.16-77.988"/>
		<path fill-rule="evenodd" clip-rule="evenodd" d="M393.746,1090.76c17.809-17.809,39.947-11.192,39.947-11.192
			s4.644,17.944-11.54,37.962c-15.835,19.585-44.554,18.168-44.554,18.168S375.937,1108.57,393.746,1090.76z"/>
		<path fill-rule="evenodd" clip-rule="evenodd" d="M395.746,1088.76c17.809-17.809,39.947-11.192,39.947-11.192
			s4.644,17.944-11.54,37.962c-15.835,19.585-44.554,18.168-44.554,18.168S377.937,1106.57,395.746,1088.76z"/>
		<path fill-rule="evenodd" clip-rule="evenodd" d="M409.907,1032.507c21.812,12.593,21.149,35.69,21.149,35.69
			s-16.131,9.13-39.655-1.322c-23.016-10.226-29.08-38.333-29.08-38.333S388.095,1019.914,409.907,1032.507z"/>
		<path fill-rule="evenodd" clip-rule="evenodd" d="M411.907,1030.507c21.812,12.593,21.149,35.69,21.149,35.69
			s-16.131,9.13-39.655-1.322c-23.016-10.226-29.08-38.333-29.08-38.333S390.095,1017.914,411.907,1030.507z"/>
		<path fill-rule="evenodd" clip-rule="evenodd" stroke="#000000" stroke-width="10" stroke-miterlimit="10" d="M769.265,1075.449
			c33.664-37.007,99.017-129.077,219.425-170.517c125.877-44.721,185.472-36.829,238.935-32.957
			c-104.048,305.525-445.375,347.15-655.75,262.191C571.875,1134.167,713.718,1137.245,769.265,1075.449z"/>
		<path fill="none" stroke="#000000" stroke-width="10" stroke-miterlimit="10" d="M1074.846,878.096
			c0,162.727-119.798,294.133-267.846,294.133"/>
		<path fill="none" stroke="#000000" stroke-width="10" stroke-miterlimit="10" d="M936.973,927.255
			c0,131.695-109.581,239.261-245.001,239.261"/>
	</g>
	<g>
		<g>
			<g>
				<g opacity="0.2">
					<path fill-rule="evenodd" clip-rule="evenodd" d="M802.153,282.026c246.385,0,448.763,199.074,448.763,445.459
						c0,245.747-166.374,434.881-448.102,450.746c-33.395,1.88-76.493,0.688-116.322-6.609
						c-82.074-15.037-167.457-46.457-223.39-77.988c-11.525-6.497-27.359-18.395-26.437-21.149
						c4.361-13.026,21.928-24.628,29.08-39.655c1.789-3.758-3.655-17.07-11.058-24.853c-67.754-71.235-98.655-173.865-98.655-279.83
						C356.034,481.761,555.768,282.026,802.153,282.026z"/>
				</g>
				<g>
					<linearGradient id="SVGID_1_" gradientUnits="userSpaceOnUse" x1="805.4752" y1="1152.6089" x2="805.4752" y2="295.4217">
						<stop  offset="0" style="stop-color:#4286F4"/>
						<stop  offset="0.2913" style="stop-color:#428FFD"/>
						<stop  offset="0.328" style="stop-color:#4291FF"/>
						<stop  offset="0.677" style="stop-color:#429BF4"/>
						<stop  offset="1" style="stop-color:#42A3F4"/>
					</linearGradient>
					<path fill-rule="evenodd" clip-rule="evenodd" fill="url(#SVGID_1_)" d="M804.153,280.026
						c246.385,0,448.763,199.074,448.763,445.459c0,245.747-166.374,434.881-448.102,450.746
						c-33.395,1.88-76.493,0.688-116.322-6.609c-82.074-15.037-167.457-46.457-223.39-77.988
						c-11.525-6.497-27.359-18.395-26.437-21.149c4.361-13.026,21.928-24.628,29.08-39.655c1.789-3.758-3.655-17.07-11.058-24.853
						c-67.754-71.235-98.655-173.865-98.655-279.83C358.034,479.761,557.768,280.026,804.153,280.026z"/>
				</g>
			</g>
			<path fill-rule="evenodd" clip-rule="evenodd" fill="#FFFFFF" d="M916.509,507.382c60.227,0,109.051,48.824,109.051,109.051
				s-48.824,109.052-109.051,109.052c-60.228,0-109.052-48.824-109.052-109.052S856.282,507.382,916.509,507.382z"/>
			<g>
				<g opacity="0.2">
					<path fill-rule="evenodd" clip-rule="evenodd" d="M1365.255,330.934c35.406,0,64.109,28.703,64.109,64.109
						c0,35.407-28.703,64.109-64.109,64.109c-35.406,0-64.109-28.703-64.109-64.109
						C1301.146,359.636,1329.849,330.934,1365.255,330.934z"/>
				</g>
				<g>
					<path fill-rule="evenodd" clip-rule="evenodd" fill="#EEF0F2" d="M1367.255,328.934c35.406,0,64.109,28.703,64.109,64.109
						c0,35.407-28.703,64.109-64.109,64.109c-35.406,0-64.109-28.703-64.109-64.109
						C1303.146,357.636,1331.849,328.934,1367.255,328.934z"/>
				</g>
			</g>
			<path fill-rule="evenodd" clip-rule="evenodd" fill="#FFFFFF" d="M1387.744,352.727c10.95,0,19.828,8.877,19.828,19.828
				c0,10.95-8.877,19.828-19.828,19.828c-10.951,0-19.828-8.877-19.828-19.828C1367.916,361.604,1376.793,352.727,1387.744,352.727z
				"/>
			<g>
				<g opacity="0.2">
					<path fill-rule="evenodd" clip-rule="evenodd" d="M1263.474,263.52c16.426,0,29.741,13.316,29.741,29.741
						c0,16.426-13.316,29.741-29.741,29.741c-16.426,0-29.741-13.316-29.741-29.741
						C1233.733,276.836,1247.048,263.52,1263.474,263.52z"/>
				</g>
				<g>
					<path fill-rule="evenodd" clip-rule="evenodd" fill="#EEF0F2" d="M1265.474,261.52c16.426,0,29.741,13.316,29.741,29.741
						c0,16.426-13.316,29.741-29.741,29.741c-16.426,0-29.741-13.316-29.741-29.741
						C1235.733,274.836,1249.048,261.52,1265.474,261.52z"/>
				</g>
			</g>
			<g>
				<g opacity="0.2">
					<path fill-rule="evenodd" clip-rule="evenodd" d="M1263.474,467.083c16.426,0,29.741,13.316,29.741,29.741
						c0,16.426-13.316,29.741-29.741,29.741c-16.426,0-29.741-13.316-29.741-29.741
						C1233.733,480.399,1247.048,467.083,1263.474,467.083z"/>
				</g>
				<g>
					<path fill-rule="evenodd" clip-rule="evenodd" fill="#EEF0F2" d="M1265.474,465.083c16.426,0,29.741,13.316,29.741,29.741
						c0,16.426-13.316,29.741-29.741,29.741c-16.426,0-29.741-13.316-29.741-29.741
						C1235.733,478.399,1249.048,465.083,1265.474,465.083z"/>
				</g>
			</g>
			<path fill-rule="evenodd" clip-rule="evenodd" fill="#302828" d="M946.251,549.68c36.501,0,66.092,29.59,66.092,66.092
				c0,36.501-29.59,66.092-66.092,66.092c-36.502,0-66.092-29.59-66.092-66.092C880.159,579.271,909.749,549.68,946.251,549.68z"/>
			<path fill-rule="evenodd" clip-rule="evenodd" fill="#FFFFFF" stroke="#000000" stroke-miterlimit="10" d="M967.4,569.508
				c14.601,0,26.437,11.836,26.437,26.437c0,14.601-11.836,26.437-26.437,26.437c-14.601,0-26.437-11.836-26.437-26.437
				C940.963,581.344,952.799,569.508,967.4,569.508z"/>
			<path fill-rule="evenodd" clip-rule="evenodd" fill="#FFFFFF" stroke="#000000" stroke-miterlimit="10" d="M927.745,602.554
				c7.3,0,13.218,5.918,13.218,13.218c0,7.3-5.918,13.218-13.218,13.218c-7.3,0-13.218-5.918-13.218-13.218
				C914.527,608.472,920.445,602.554,927.745,602.554z"/>
			<path fill-rule="evenodd" clip-rule="evenodd" fill="#1A59AC" d="M673.161,1014.474c37.044-4.396,102.673-11.307,131.611-81.353
				c0,0-12.512,60.535-49.657,76.718C717.97,1026.021,673.161,1014.474,673.161,1014.474z"/>
			<linearGradient id="SVGID_2_" gradientUnits="userSpaceOnUse" x1="642.7581" y1="1009.5195" x2="768.1749" y2="884.1027">
				<stop  offset="0" style="stop-color:#5FB8EC"/>
				<stop  offset="0.2495" style="stop-color:#58AFEE"/>
				<stop  offset="0.6632" style="stop-color:#4495F3"/>
				<stop  offset="0.7094" style="stop-color:#4292F4"/>
			</linearGradient>
			<path fill-rule="evenodd" clip-rule="evenodd" fill="url(#SVGID_2_)" d="M713.269,840.51c0,0-100.505,80.292-81.954,170.517
				c14.476,4.263,134.128,19.953,173.16-77.988"/>
			<g>
				<g opacity="0.2">
					<path fill-rule="evenodd" clip-rule="evenodd" d="M392.746,1089.76c17.809-17.809,39.947-11.192,39.947-11.192
						s4.644,17.944-11.54,37.962c-15.835,19.585-44.554,18.168-44.554,18.168S374.937,1107.57,392.746,1089.76z"/>
				</g>
				<g>
					<linearGradient id="SVGID_3_" gradientUnits="userSpaceOnUse" x1="406.9348" y1="1132.7213" x2="406.9348" y2="1075.366">
						<stop  offset="0" style="stop-color:#42A0F4"/>
						<stop  offset="0.493" style="stop-color:#4297F4"/>
						<stop  offset="0.9944" style="stop-color:#4288F4"/>
					</linearGradient>
					<path fill-rule="evenodd" clip-rule="evenodd" fill="url(#SVGID_3_)" d="M394.746,1087.76
						c17.809-17.809,39.947-11.192,39.947-11.192s4.644,17.944-11.54,37.962c-15.835,19.585-44.554,18.168-44.554,18.168
						S376.937,1105.57,394.746,1087.76z"/>
				</g>
			</g>
			<g>
				<g opacity="0.2">
					<path fill-rule="evenodd" clip-rule="evenodd" d="M408.907,1031.507c21.812,12.593,21.149,35.69,21.149,35.69
						s-16.131,9.13-39.655-1.322c-23.016-10.226-29.08-38.333-29.08-38.333S387.095,1018.914,408.907,1031.507z"/>
				</g>
				<g>
					<linearGradient id="SVGID_4_" gradientUnits="userSpaceOnUse" x1="425.6419" y1="1071.6111" x2="371.4466" y2="1017.4158">
						<stop  offset="0" style="stop-color:#4288F4"/>
						<stop  offset="0.5114" style="stop-color:#4291F4"/>
						<stop  offset="1" style="stop-color:#429FF4"/>
					</linearGradient>
					<path fill-rule="evenodd" clip-rule="evenodd" fill="url(#SVGID_4_)" d="M410.907,1029.507
						c21.812,12.593,21.149,35.69,21.149,35.69s-16.131,9.13-39.655-1.322c-23.016-10.226-29.08-38.333-29.08-38.333
						S389.095,1016.914,410.907,1029.507z"/>
				</g>
			</g>
			<path fill-rule="evenodd" clip-rule="evenodd" fill="#FFFFFF" stroke="#1D5BAB" stroke-width="10" stroke-miterlimit="10" d="
				M768.265,1074.449c33.664-37.007,99.017-129.077,219.425-170.517c125.877-44.721,185.472-36.829,238.935-32.957
				c-104.048,305.525-445.375,347.15-655.75,262.191C570.875,1133.167,712.718,1136.245,768.265,1074.449z"/>
			<path fill="none" stroke="#1D5BAB" stroke-width="10" stroke-miterlimit="10" d="M1073.846,877.096
				c0,162.727-119.798,294.133-267.846,294.133"/>
			<path fill="none" stroke="#1D5BAB" stroke-width="10" stroke-miterlimit="10" d="M935.973,926.255
				c0,131.695-109.581,239.261-245.001,239.261"/>
		</g>
	</g>
    <animate attributeName="x" from="160" to="60" begin="0s" dur="3s" repeatCount="indefinite" />
</g>
</svg>
