<?xml version="1.0" encoding="utf-8"?>
  <!-- Generator: Adobe Illustrator 17.0.0, SVG Export Plug-In . SVG Version: 6.00 Build 0)  -->
  <!DOCTYPE svg PUBLIC "-//W3C//DTD SVG 1.1//EN" "http://www.w3.org/Graphics/SVG/1.1/DTD/svg11.dtd">
  <svg version="1.1" id="图层_1" xmlns="http://www.w3.org/2000/svg" xmlns:xlink="http://www.w3.org/1999/xlink" x="0px" y="0px" width="25px" height="25px" viewBox="0 0 1500 1500" enable-background="new 0 0 1500 1500" xml:space="preserve">
    <g>
      <g opacity="0.3">
        <path fill-rule="evenodd" clip-rule="evenodd" d="M748.999,470.511c159.64,0,289.052,129.414,289.052,289.052
			c0,159.64-129.412,289.052-289.052,289.052c-159.638,0-289.05-129.412-289.05-289.052
			C459.949,599.924,589.361,470.511,748.999,470.511z" />
        <path fill-rule="evenodd" clip-rule="evenodd" d="M750.999,468.511c159.64,0,289.052,129.414,289.052,289.052
			c0,159.64-129.412,289.052-289.052,289.052c-159.638,0-289.05-129.412-289.05-289.052
			C461.949,597.924,591.361,468.511,750.999,468.511z" />
      </g>
      <g>
        <g>
          <g>
            <g opacity="0.2">
              <path fill-rule="evenodd" clip-rule="evenodd" d="M747.999,469.511c159.64,0,289.052,129.414,289.052,289.052
						c0,159.64-129.412,289.052-289.052,289.052c-159.638,0-289.05-129.412-289.05-289.052
						C458.949,598.924,588.361,469.511,747.999,469.511z" />
            </g>
            <g>
              <path fill-rule="evenodd" clip-rule="evenodd" fill="#EEF0F2" d="M749.999,467.511c159.64,0,289.052,129.414,289.052,289.052
						c0,159.64-129.412,289.052-289.052,289.052c-159.638,0-289.05-129.412-289.05-289.052
						C460.949,596.924,590.361,467.511,749.999,467.511z" />
            </g>
          </g>
        </g>
      </g>
    </g>
  </svg>
