<?xml version="1.0" encoding="utf-8"?>
  <!-- Generator: Adobe Illustrator 17.0.0, SVG Export Plug-In . SVG Version: 6.00 Build 0)  -->
  <!DOCTYPE svg PUBLIC "-//W3C//DTD SVG 1.1//EN" "http://www.w3.org/Graphics/SVG/1.1/DTD/svg11.dtd">
  <svg version="1.1" id="图层_1" xmlns="http://www.w3.org/2000/svg" xmlns:xlink="http://www.w3.org/1999/xlink" x="0px" y="0px" width="40px" height="40px" viewBox="0 0 1500 1500" enable-background="new 0 0 1500 1500" xml:space="preserve">
    <g>
      <g opacity="0.3">
        <path fill-rule="evenodd" clip-rule="evenodd" d="M758.429,471.741c142.588,0,258.178,115.59,258.178,258.178
			c0,142.588-115.59,258.178-258.178,258.178c-142.587,0-258.178-115.59-258.178-258.178
			C500.251,587.331,615.841,471.741,758.429,471.741z" />
        <path fill-rule="evenodd" clip-rule="evenodd" d="M760.429,469.741c142.588,0,258.178,115.59,258.178,258.178
			c0,142.588-115.59,258.178-258.178,258.178c-142.587,0-258.178-115.59-258.178-258.178
			C502.251,585.331,617.841,469.741,760.429,469.741z" />
        <path fill-rule="evenodd" clip-rule="evenodd" d="M852.429,541.24c55.714,0,100.88,45.166,100.88,100.88
			c0,55.714-45.166,100.88-100.88,100.88c-55.715,0-100.88-45.166-100.88-100.88C751.549,586.406,796.714,541.24,852.429,541.24z" />
      </g>
      <g>
        <g>
          <g>
            <g opacity="0.2">
              <path fill-rule="evenodd" clip-rule="evenodd" d="M757.429,470.741c142.588,0,258.178,115.59,258.178,258.178
						c0,142.588-115.59,258.178-258.178,258.178c-142.587,0-258.178-115.59-258.178-258.178
						C499.251,586.331,614.841,470.741,757.429,470.741z" />
            </g>
            <g>
              <path fill-rule="evenodd" clip-rule="evenodd" fill="#EEF0F2" d="M759.429,468.741c142.588,0,258.178,115.59,258.178,258.178
						c0,142.588-115.59,258.178-258.178,258.178c-142.587,0-258.178-115.59-258.178-258.178
						C501.251,584.331,616.841,468.741,759.429,468.741z" />
            </g>
          </g>
          <path fill-rule="evenodd" clip-rule="evenodd" fill="#FFFFFF" d="M851.429,540.24c55.714,0,100.88,45.166,100.88,100.88
				c0,55.714-45.166,100.88-100.88,100.88c-55.715,0-100.88-45.166-100.88-100.88C750.549,585.406,795.714,540.24,851.429,540.24z" />
        </g>
      </g>
    </g>
  </svg>
