<?xml version="1.0" encoding="utf-8"?>
  <!-- Generator: Adobe Illustrator 17.0.0, SVG Export Plug-In . SVG Version: 6.00 Build 0)  -->
  <!DOCTYPE svg PUBLIC "-//W3C//DTD SVG 1.1//EN" "http://www.w3.org/Graphics/SVG/1.1/DTD/svg11.dtd">
  <svg version="1.1" id="图层_1" xmlns="http://www.w3.org/2000/svg" xmlns:xlink="http://www.w3.org/1999/xlink" x="0px" y="0px" width="110px" height="110px" viewBox="0 0 1500 1500" enable-background="new 0 0 1500 1500" xml:space="preserve">
    <g>
      <g opacity="0.3">
        <path fill-rule="evenodd" clip-rule="evenodd" d="M756.655,121.4c352.148,0,641.4,284.528,641.4,636.676
			c0,351.236-237.792,621.559-640.455,644.233c-47.73,2.688-109.329,0.984-166.254-9.446
			c-117.305-21.492-239.34-66.399-319.283-111.466c-16.472-9.285-39.103-26.291-37.785-30.228
			c6.233-18.617,31.341-35.2,41.563-56.677c2.556-5.371-5.224-24.398-15.804-35.522
			c-96.838-101.813-141.004-248.499-141.004-399.949C119.034,406.873,404.507,121.4,756.655,121.4z" />
        <path fill-rule="evenodd" clip-rule="evenodd" d="M758.655,119.4c352.148,0,641.4,284.528,641.4,636.676
			c0,351.236-237.792,621.559-640.455,644.233c-47.73,2.688-109.329,0.984-166.254-9.446
			c-117.305-21.492-239.34-66.399-319.283-111.466c-16.472-9.285-39.103-26.291-37.785-30.228
			c6.233-18.617,31.341-35.2,41.563-56.677c2.556-5.371-5.224-24.398-15.804-35.522
			c-96.838-101.813-141.004-248.499-141.004-399.949C121.034,404.873,406.507,119.4,758.655,119.4z" />
        <path fill-rule="evenodd" clip-rule="evenodd" d="M919.241,444.35c86.081,0,155.863,69.782,155.863,155.863
			s-69.782,155.863-155.863,155.863c-86.081,0-155.863-69.782-155.863-155.863S833.16,444.35,919.241,444.35z" />
        <path fill-rule="evenodd" clip-rule="evenodd" d="M961.749,504.806c52.17,0,94.462,42.292,94.462,94.463
			c0,52.17-42.292,94.462-94.462,94.462c-52.17,0-94.462-42.292-94.462-94.462C867.287,547.099,909.579,504.806,961.749,504.806z" />
        <path fill-rule="evenodd" clip-rule="evenodd" stroke="#000000" stroke-miterlimit="10" d="M991.977,533.145
			c20.868,0,37.785,16.917,37.785,37.785c0,20.868-16.917,37.785-37.785,37.785c-20.868,0-37.785-16.917-37.785-37.785
			C954.192,550.062,971.109,533.145,991.977,533.145z" />
        <path fill-rule="evenodd" clip-rule="evenodd" stroke="#000000" stroke-miterlimit="10" d="M935.3,580.376
			c10.434,0,18.892,8.458,18.892,18.893c0,10.434-8.458,18.892-18.892,18.892c-10.434,0-18.893-8.458-18.893-18.892
			C916.407,588.835,924.865,580.376,935.3,580.376z" />
        <path fill-rule="evenodd" clip-rule="evenodd" d="M571.432,1169.117c52.945-6.283,146.746-16.161,188.106-116.275
			c0,0-17.883,86.52-70.972,109.649C635.476,1185.621,571.432,1169.117,571.432,1169.117z" />
        <path fill-rule="evenodd" clip-rule="evenodd" d="M628.757,920.477c0,0-143.648,114.758-117.133,243.713
			c20.69,6.093,191.704,28.518,247.491-111.466" />
        <path fill-rule="evenodd" clip-rule="evenodd" d="M171.506,1275.863c25.454-25.454,57.095-15.996,57.095-15.996
			s6.638,25.647-16.494,54.257c-22.632,27.993-63.679,25.967-63.679,25.967S146.052,1301.317,171.506,1275.863z" />
        <path fill-rule="evenodd" clip-rule="evenodd" d="M173.506,1273.863c25.454-25.454,57.095-15.996,57.095-15.996
			s6.638,25.647-16.494,54.257c-22.632,27.993-63.679,25.967-63.679,25.967S148.052,1299.317,173.506,1273.863z" />
        <path fill-rule="evenodd" clip-rule="evenodd" d="M194.604,1192.603c31.174,17.999,30.228,51.01,30.228,51.01
			s-23.055,13.049-56.677-1.889c-32.896-14.616-41.563-54.788-41.563-54.788S163.429,1174.605,194.604,1192.603z" />
        <path fill-rule="evenodd" clip-rule="evenodd" d="M196.604,1190.603c31.174,17.999,30.228,51.01,30.228,51.01
			s-23.055,13.049-56.677-1.889c-32.896-14.616-41.563-54.788-41.563-54.788S165.429,1172.605,196.604,1190.603z" />
        <path fill-rule="evenodd" clip-rule="evenodd" stroke="#000000" stroke-width="10" stroke-miterlimit="10" d="M707.362,1254.837
			c48.115-52.893,141.521-184.484,313.615-243.713c179.911-63.918,265.088-52.639,341.5-47.104
			c-148.712,436.674-636.557,496.167-937.238,374.74C425.239,1338.76,627.97,1343.16,707.362,1254.837z" />
        <path fill="none" stroke="#000000" stroke-width="10" stroke-miterlimit="10" d="M1144.115,972.768
			c0,232.58-171.223,420.393-382.821,420.393" />
        <path fill="none" stroke="#000000" stroke-width="10" stroke-miterlimit="10" d="M947.06,1043.03
			c0,188.227-156.619,341.966-350.17,341.966" />
      </g>
      <g>
        <g>
          <g>
            <g opacity="0.2">
              <path fill-rule="evenodd" clip-rule="evenodd" d="M755.655,120.4c352.148,0,641.4,284.528,641.4,636.676
						c0,351.236-237.792,621.559-640.455,644.233c-47.73,2.688-109.329,0.984-166.254-9.446
						c-117.305-21.492-239.34-66.399-319.283-111.466c-16.472-9.285-39.103-26.291-37.785-30.228
						c6.233-18.617,31.341-35.2,41.563-56.677c2.556-5.371-5.224-24.398-15.804-35.522
						c-96.838-101.813-141.004-248.499-141.004-399.949C118.034,405.873,403.507,120.4,755.655,120.4z" />
            </g>
            <g>
              <linearGradient id="SVGID_1_" gradientUnits="userSpaceOnUse" x1="759.5441" y1="1365.5483" x2="759.5441" y2="140.4044">
                <stop offset="0" style="stop-color:#4286F4" />
                <stop offset="0.2913" style="stop-color:#428FFD" />
                <stop offset="0.328" style="stop-color:#4291FF" />
                <stop offset="0.677" style="stop-color:#429BF4" />
                <stop offset="1" style="stop-color:#42A3F4" />
              </linearGradient>
              <path fill-rule="evenodd" clip-rule="evenodd" fill="url(#SVGID_1_)" d="M757.655,118.4c352.148,0,641.4,284.528,641.4,636.676
						c0,351.236-237.792,621.559-640.455,644.233c-47.73,2.688-109.329,0.984-166.254-9.446
						c-117.305-21.492-239.34-66.399-319.283-111.466c-16.472-9.285-39.103-26.291-37.785-30.228
						c6.233-18.617,31.341-35.2,41.563-56.677c2.556-5.371-5.224-24.398-15.804-35.522
						c-96.838-101.813-141.004-248.499-141.004-399.949C120.034,403.873,405.507,118.4,757.655,118.4z" />
            </g>
          </g>
          <path fill-rule="evenodd" clip-rule="evenodd" fill="#FFFFFF" d="M918.241,443.35c86.081,0,155.863,69.782,155.863,155.863
				s-69.782,155.863-155.863,155.863c-86.081,0-155.863-69.782-155.863-155.863S832.16,443.35,918.241,443.35z" />
          <path fill-rule="evenodd" clip-rule="evenodd" fill="#302828" d="M960.749,503.806c52.17,0,94.462,42.292,94.462,94.463
				c0,52.17-42.292,94.462-94.462,94.462c-52.17,0-94.462-42.292-94.462-94.462C866.287,546.099,908.579,503.806,960.749,503.806z" />
          <path fill-rule="evenodd" clip-rule="evenodd" fill="#FFFFFF" stroke="#000000" stroke-miterlimit="10" d="M990.977,532.145
				c20.868,0,37.785,16.917,37.785,37.785c0,20.868-16.917,37.785-37.785,37.785c-20.868,0-37.785-16.917-37.785-37.785
				C953.192,549.062,970.109,532.145,990.977,532.145z" />
          <path fill-rule="evenodd" clip-rule="evenodd" fill="#FFFFFF" stroke="#000000" stroke-miterlimit="10" d="M934.3,579.376
				c10.434,0,18.892,8.458,18.892,18.893c0,10.434-8.458,18.892-18.892,18.892c-10.434,0-18.893-8.458-18.893-18.892
				C915.407,587.835,923.865,579.376,934.3,579.376z" />
          <path fill-rule="evenodd" clip-rule="evenodd" fill="#1A59AC" d="M570.432,1168.117c52.945-6.283,146.746-16.161,188.106-116.275
				c0,0-17.883,86.52-70.972,109.649C634.476,1184.621,570.432,1168.117,570.432,1168.117z" />
          <linearGradient id="SVGID_2_" gradientUnits="userSpaceOnUse" x1="526.979" y1="1161.0364" x2="706.2322" y2="981.7831">
            <stop offset="0" style="stop-color:#5FB8EC" />
            <stop offset="0.2495" style="stop-color:#58AFEE" />
            <stop offset="0.6632" style="stop-color:#4495F3" />
            <stop offset="0.7094" style="stop-color:#4292F4" />
          </linearGradient>
          <path fill-rule="evenodd" clip-rule="evenodd" fill="url(#SVGID_2_)" d="M627.757,919.477c0,0-143.648,114.758-117.133,243.713
				c20.69,6.093,191.704,28.518,247.491-111.466" />
          <g>
            <g opacity="0.2">
              <path fill-rule="evenodd" clip-rule="evenodd" d="M170.506,1274.863c25.454-25.454,57.095-15.996,57.095-15.996
						s6.638,25.647-16.494,54.257c-22.632,27.993-63.679,25.967-63.679,25.967S145.052,1300.317,170.506,1274.863z" />
            </g>
            <g>
              <linearGradient id="SVGID_3_" gradientUnits="userSpaceOnUse" x1="189.9262" y1="1337.1238" x2="189.9262" y2="1255.1481">
                <stop offset="0" style="stop-color:#42A0F4" />
                <stop offset="0.493" style="stop-color:#4297F4" />
                <stop offset="0.9944" style="stop-color:#4288F4" />
              </linearGradient>
              <path fill-rule="evenodd" clip-rule="evenodd" fill="url(#SVGID_3_)" d="M172.506,1272.863
						c25.454-25.454,57.095-15.996,57.095-15.996s6.638,25.647-16.494,54.257c-22.632,27.993-63.679,25.967-63.679,25.967
						S147.052,1298.317,172.506,1272.863z" />
            </g>
          </g>
          <g>
            <g opacity="0.2">
              <path fill-rule="evenodd" clip-rule="evenodd" d="M193.604,1191.603c31.174,17.999,30.228,51.01,30.228,51.01
						s-23.055,13.049-56.677-1.889c-32.896-14.616-41.563-54.788-41.563-54.788S162.429,1173.605,193.604,1191.603z" />
            </g>
            <g>
              <linearGradient id="SVGID_4_" gradientUnits="userSpaceOnUse" x1="216.6634" y1="1249.7814" x2="139.2043" y2="1172.3223">
                <stop offset="0" style="stop-color:#4288F4" />
                <stop offset="0.5114" style="stop-color:#4291F4" />
                <stop offset="1" style="stop-color:#429FF4" />
              </linearGradient>
              <path fill-rule="evenodd" clip-rule="evenodd" fill="url(#SVGID_4_)" d="M195.604,1189.603
						c31.174,17.999,30.228,51.01,30.228,51.01s-23.055,13.049-56.677-1.889c-32.896-14.616-41.563-54.788-41.563-54.788
						S164.429,1171.605,195.604,1189.603z" />
            </g>
          </g>
          <path fill-rule="evenodd" clip-rule="evenodd" fill="#FFFFFF" stroke="#1D5BAB" stroke-width="10" stroke-miterlimit="10" d="
				M706.362,1253.837c48.115-52.893,141.521-184.484,313.615-243.713c179.911-63.918,265.088-52.639,341.5-47.104
				c-148.712,436.674-636.557,496.167-937.238,374.74C424.239,1337.76,626.97,1342.16,706.362,1253.837z" />
          <path fill="none" stroke="#1D5BAB" stroke-width="10" stroke-miterlimit="10" d="M1143.115,971.768
				c0,232.58-171.223,420.393-382.821,420.393" />
          <path fill="none" stroke="#1D5BAB" stroke-width="10" stroke-miterlimit="10" d="M946.06,1042.03
				c0,188.227-156.619,341.966-350.17,341.966" />
        </g>
      </g>
    </g>
  </svg>
