<?xml version="1.0" encoding="utf-8"?>
<!-- Generator: Adobe Illustrator 17.0.0, SVG Export Plug-In . SVG Version: 6.00 Build 0)  -->
<!DOCTYPE svg PUBLIC "-//W3C//DTD SVG 1.1//EN" "http://www.w3.org/Graphics/SVG/1.1/DTD/svg11.dtd">
<svg version="1.1" id="图层_1" xmlns="http://www.w3.org/2000/svg" xmlns:xlink="http://www.w3.org/1999/xlink" x="0px" y="0px"
	 width="1500px" height="1500px" viewBox="0 0 1500 1500" enable-background="new 0 0 1500 1500" xml:space="preserve">
<g>
	<path fill-rule="evenodd" clip-rule="evenodd" fill="none" stroke="#C4DAF2" stroke-width="5" stroke-miterlimit="10" d="
		M660.153,280.026c246.385,0,448.763,199.074,448.763,445.459c0,245.747-166.374,434.881-448.102,450.746
		c-33.395,1.88-76.493,0.688-116.322-6.609c-82.074-15.037-167.457-46.457-223.39-77.988c-11.525-6.497-27.359-18.395-26.437-21.149
		c4.361-13.026,21.928-24.628,29.08-39.655c1.789-3.758-3.655-17.07-11.058-24.853c-67.754-71.235-98.655-173.865-98.655-279.83
		C214.034,479.761,413.768,280.026,660.153,280.026z"/>
	<path fill-rule="evenodd" clip-rule="evenodd" fill="none" stroke="#C4DAF2" stroke-width="5" stroke-miterlimit="10" d="
		M772.509,507.382c60.227,0,109.052,48.824,109.052,109.051s-48.824,109.052-109.052,109.052
		c-60.228,0-109.052-48.824-109.052-109.052S712.282,507.382,772.509,507.382z"/>
	<path fill-rule="evenodd" clip-rule="evenodd" fill="none" stroke="#C4DAF2" stroke-width="5" stroke-miterlimit="10" d="
		M1223.255,328.934c35.406,0,64.109,28.703,64.109,64.109c0,35.407-28.703,64.109-64.109,64.109
		c-35.406,0-64.109-28.703-64.109-64.109C1159.146,357.636,1187.849,328.934,1223.255,328.934z"/>
	<path fill-rule="evenodd" clip-rule="evenodd" fill="none" stroke="#C4DAF2" stroke-width="3" stroke-miterlimit="10" d="
		M1243.744,352.727c10.95,0,19.828,8.877,19.828,19.828c0,10.95-8.877,19.828-19.828,19.828c-10.951,0-19.828-8.877-19.828-19.828
		C1223.916,361.604,1232.793,352.727,1243.744,352.727z"/>
	<path fill-rule="evenodd" clip-rule="evenodd" fill="none" stroke="#C4DAF2" stroke-width="5" stroke-miterlimit="10" d="
		M1121.474,261.52c16.426,0,29.741,13.316,29.741,29.741c0,16.426-13.316,29.741-29.741,29.741
		c-16.426,0-29.741-13.316-29.741-29.741C1091.733,274.836,1105.048,261.52,1121.474,261.52z"/>
	<path fill-rule="evenodd" clip-rule="evenodd" fill="none" stroke="#C4DAF2" stroke-width="5" stroke-miterlimit="10" d="
		M1121.474,465.083c16.426,0,29.741,13.316,29.741,29.741c0,16.426-13.316,29.741-29.741,29.741
		c-16.426,0-29.741-13.316-29.741-29.741C1091.733,478.399,1105.048,465.083,1121.474,465.083z"/>
	<path fill-rule="evenodd" clip-rule="evenodd" fill="none" stroke="#C4DAF2" stroke-width="3" stroke-miterlimit="10" d="
		M802.251,549.68c36.501,0,66.092,29.59,66.092,66.092c0,36.501-29.59,66.092-66.092,66.092c-36.502,0-66.092-29.59-66.092-66.092
		C736.159,579.271,765.749,549.68,802.251,549.68z"/>
	<path fill-rule="evenodd" clip-rule="evenodd" fill="none" stroke="#C4DAF2" stroke-width="2" stroke-miterlimit="10" d="
		M823.4,569.508c14.601,0,26.437,11.836,26.437,26.437c0,14.601-11.836,26.437-26.437,26.437c-14.601,0-26.437-11.836-26.437-26.437
		C796.963,581.344,808.799,569.508,823.4,569.508z"/>
	<path fill-rule="evenodd" clip-rule="evenodd" fill="none" stroke="#C4DAF2" stroke-width="2" stroke-miterlimit="10" d="
		M783.745,602.554c7.3,0,13.218,5.918,13.218,13.218c0,7.3-5.918,13.218-13.218,13.218c-7.3,0-13.218-5.918-13.218-13.218
		C770.527,608.472,776.445,602.554,783.745,602.554z"/>
	<path fill-rule="evenodd" clip-rule="evenodd" fill="none" stroke="#C4DAF2" stroke-width="3" stroke-miterlimit="10" d="
		M659.771,936.121c0.186-0.9-19.698,61.101-48.657,73.718c-37.145,16.182-81.954,4.635-81.954,4.635"/>
	<path fill-rule="evenodd" clip-rule="evenodd" fill="none" stroke="#C4DAF2" stroke-width="5" stroke-miterlimit="10" d="
		M569.269,840.51c0,0-100.505,80.292-81.954,170.517c14.476,4.263,134.128,19.953,173.16-77.988"/>
	<path fill-rule="evenodd" clip-rule="evenodd" fill="none" stroke="#C4DAF2" stroke-width="5" stroke-miterlimit="10" d="
		M243.746,1090.76c17.809-17.809,39.947-11.192,39.947-11.192s4.644,17.944-11.54,37.962
		c-15.835,19.585-44.554,18.168-44.554,18.168S225.937,1108.57,243.746,1090.76z"/>
	<path fill-rule="evenodd" clip-rule="evenodd" fill="none" stroke="#C4DAF2" stroke-width="5" stroke-miterlimit="10" d="
		M259.907,1026.507c21.812,12.593,21.149,35.69,21.149,35.69s-16.131,9.13-39.655-1.322c-23.016-10.226-29.08-38.333-29.08-38.333
		S238.095,1013.914,259.907,1026.507z"/>
	<path fill-rule="evenodd" clip-rule="evenodd" fill="none" stroke="#C4DAF2" stroke-width="5" stroke-miterlimit="10" d="
		M627.265,1078.449c33.664-37.007,99.017-129.077,219.425-170.517c125.877-44.721,185.472-36.829,238.935-32.957
		c-104.048,305.525-445.375,347.15-655.75,262.191C429.875,1137.167,571.718,1140.245,627.265,1078.449z"/>
	<path fill="none" stroke="#C4DAF2" stroke-width="5" stroke-miterlimit="10" d="M932.846,881.096
		c0,162.727-119.798,294.133-267.846,294.133"/>
	<path fill="none" stroke="#C4DAF2" stroke-width="5" stroke-miterlimit="10" d="M794.973,930.255
		c0,131.695-109.581,239.261-245.001,239.261"/>
</g>
</svg>
